<svg width="1440" height="900" viewBox="0 0 1440 900" fill="none" xmlns="http://www.w3.org/2000/svg" role="img" aria-labelledby="title desc">
  <title id="title">OriCMS workspace preview</title>
  <desc id="desc">Illustrated preview of the OriCMS project workspace with navigation, collections, content entries, and agent controls.</desc>
  <rect width="1440" height="900" rx="36" fill="#070A12"/>
  <rect x="32" y="32" width="1376" height="836" rx="28" fill="#0B1020" stroke="#243047" stroke-width="2"/>
  <rect x="64" y="72" width="250" height="756" rx="22" fill="#0F172A"/>
  <circle cx="94" cy="105" r="10" fill="#FF6B6B"/>
  <circle cx="124" cy="105" r="10" fill="#FFD166"/>
  <circle cx="154" cy="105" r="10" fill="#06D6A0"/>
  <text x="94" y="166" fill="#F8FAFC" font-family="Inter, Arial, sans-serif" font-size="34" font-weight="700">OriCMS</text>
  <text x="94" y="199" fill="#94A3B8" font-family="Inter, Arial, sans-serif" font-size="16">Justin Goldstein project</text>
  <g font-family="Inter, Arial, sans-serif" font-size="18" font-weight="600">
    <rect x="88" y="246" width="202" height="48" rx="14" fill="#172554"/>
    <text x="112" y="277" fill="#DBEAFE">Collections</text>
    <text x="112" y="340" fill="#CBD5E1">Schemas</text>
    <text x="112" y="400" fill="#CBD5E1">Media</text>
    <text x="112" y="460" fill="#CBD5E1">Builds</text>
    <text x="112" y="520" fill="#CBD5E1">Members</text>
    <text x="112" y="580" fill="#CBD5E1">Settings</text>
  </g>
  <rect x="346" y="72" width="998" height="112" rx="22" fill="#101827" stroke="#23324D"/>
  <text x="384" y="124" fill="#F8FAFC" font-family="Inter, Arial, sans-serif" font-size="34" font-weight="700">Collections workspace</text>
  <text x="384" y="154" fill="#94A3B8" font-family="Inter, Arial, sans-serif" font-size="17">Git-backed schemas, entries, assets, preview, delivery, and governed agent access.</text>
  <rect x="1146" y="104" width="156" height="48" rx="14" fill="#2563EB"/>
  <text x="1180" y="134" fill="white" font-family="Inter, Arial, sans-serif" font-size="16" font-weight="700">New entry</text>
  <rect x="346" y="216" width="306" height="612" rx="24" fill="#0F172A" stroke="#23324D"/>
  <text x="384" y="268" fill="#F8FAFC" font-family="Inter, Arial, sans-serif" font-size="24" font-weight="700">Collections</text>
  <g font-family="Inter, Arial, sans-serif">
    <rect x="382" y="306" width="234" height="72" rx="18" fill="#172554" stroke="#315AAE"/>
    <text x="410" y="338" fill="#EFF6FF" font-size="18" font-weight="700">Pages</text>
    <text x="410" y="361" fill="#93C5FD" font-size="14">12 entries · Ready</text>
    <rect x="382" y="398" width="234" height="72" rx="18" fill="#111827" stroke="#23324D"/>
    <text x="410" y="430" fill="#E2E8F0" font-size="18" font-weight="700">Case studies</text>
    <text x="410" y="453" fill="#94A3B8" font-size="14">5 entries · Drafts</text>
    <rect x="382" y="490" width="234" height="72" rx="18" fill="#111827" stroke="#23324D"/>
    <text x="410" y="522" fill="#E2E8F0" font-size="18" font-weight="700">Team</text>
    <text x="410" y="545" fill="#94A3B8" font-size="14">8 entries · Published</text>
  </g>
  <rect x="684" y="216" width="410" height="612" rx="24" fill="#0F172A" stroke="#23324D"/>
  <text x="724" y="268" fill="#F8FAFC" font-family="Inter, Arial, sans-serif" font-size="24" font-weight="700">Entries</text>
  <g font-family="Inter, Arial, sans-serif">
    <rect x="724" y="306" width="330" height="86" rx="18" fill="#111827" stroke="#334155"/>
    <text x="752" y="338" fill="#F8FAFC" font-size="18" font-weight="700">Homepage</text>
    <text x="752" y="365" fill="#94A3B8" font-size="14">main · updated 4m ago</text>
    <rect x="966" y="328" width="58" height="28" rx="14" fill="#064E3B"/>
    <text x="980" y="348" fill="#A7F3D0" font-size="13" font-weight="700">Ready</text>
    <rect x="724" y="414" width="330" height="86" rx="18" fill="#111827" stroke="#334155"/>
    <text x="752" y="446" fill="#F8FAFC" font-size="18" font-weight="700">About</text>
    <text x="752" y="473" fill="#94A3B8" font-size="14">draft branch · updated 18m ago</text>
    <rect x="966" y="436" width="58" height="28" rx="14" fill="#422006"/>
    <text x="982" y="456" fill="#FDE68A" font-size="13" font-weight="700">Draft</text>
    <rect x="724" y="522" width="330" height="86" rx="18" fill="#111827" stroke="#334155"/>
    <text x="752" y="554" fill="#F8FAFC" font-size="18" font-weight="700">Contact</text>
    <text x="752" y="581" fill="#94A3B8" font-size="14">main · updated 1h ago</text>
    <rect x="966" y="544" width="58" height="28" rx="14" fill="#064E3B"/>
    <text x="980" y="564" fill="#A7F3D0" font-size="13" font-weight="700">Ready</text>
  </g>
  <rect x="1126" y="216" width="218" height="612" rx="24" fill="#0F172A" stroke="#23324D"/>
  <text x="1162" y="268" fill="#F8FAFC" font-family="Inter, Arial, sans-serif" font-size="24" font-weight="700">Agent</text>
  <text x="1162" y="303" fill="#94A3B8" font-family="Inter, Arial, sans-serif" font-size="15">Bootstrap-first</text>
  <rect x="1162" y="338" width="146" height="44" rx="14" fill="#1E293B"/>
  <text x="1186" y="366" fill="#CBD5E1" font-family="Inter, Arial, sans-serif" font-size="15" font-weight="700">Preflight</text>
  <rect x="1162" y="402" width="146" height="44" rx="14" fill="#1E293B"/>
  <text x="1186" y="430" fill="#CBD5E1" font-family="Inter, Arial, sans-serif" font-size="15" font-weight="700">Permissions</text>
  <rect x="1162" y="466" width="146" height="44" rx="14" fill="#1E293B"/>
  <text x="1186" y="494" fill="#CBD5E1" font-family="Inter, Arial, sans-serif" font-size="15" font-weight="700">Audit trail</text>
  <path d="M1162 586H1308" stroke="#334155" stroke-width="2"/>
  <text x="1162" y="634" fill="#F8FAFC" font-family="Inter, Arial, sans-serif" font-size="17" font-weight="700">One model for</text>
  <text x="1162" y="660" fill="#94A3B8" font-family="Inter, Arial, sans-serif" font-size="15">humans and agents</text>
</svg>
